<mxfile host="app.diagrams.net" agent="Mozilla/5.0 (Windows NT 10.0; Win64; x64) AppleWebKit/537.36 (KHTML, like Gecko) Chrome/129.0.0.0 Safari/537.36" version="24.7.17" pages="2">
  <diagram name="Sida-1" id="FlCt9nJQ4kQ4FfJKlmZ-">
    <mxGraphModel dx="2963" dy="2738" grid="0" gridSize="10" guides="1" tooltips="1" connect="1" arrows="1" fold="1" page="1" pageScale="1" pageWidth="827" pageHeight="1169" math="0" shadow="0">
      <root>
        <mxCell id="0" />
        <mxCell id="1" parent="0" />
        <mxCell id="21m5CHn8YErzXhLoMhKg-20" style="edgeStyle=orthogonalEdgeStyle;rounded=0;orthogonalLoop=1;jettySize=auto;html=1;" edge="1" parent="1" source="21m5CHn8YErzXhLoMhKg-1" target="21m5CHn8YErzXhLoMhKg-6">
          <mxGeometry relative="1" as="geometry" />
        </mxCell>
        <mxCell id="21m5CHn8YErzXhLoMhKg-1" value="&lt;table border=&quot;1&quot; width=&quot;100%&quot; height=&quot;100%&quot; cellpadding=&quot;4&quot; style=&quot;width:100%;height:100%;border-collapse:collapse;&quot;&gt;&lt;tbody&gt;&lt;tr&gt;&lt;th align=&quot;center&quot;&gt;Input&lt;/th&gt;&lt;/tr&gt;&lt;tr&gt;&lt;td align=&quot;center&quot;&gt;is_quit&lt;br&gt;is_mouse1_down&lt;br&gt;is_mouse1_up&lt;br&gt;mouse_position&lt;/td&gt;&lt;/tr&gt;&lt;tr&gt;&lt;td align=&quot;center&quot;&gt;&lt;br&gt;&lt;/td&gt;&lt;/tr&gt;&lt;/tbody&gt;&lt;/table&gt;" style="text;html=1;whiteSpace=wrap;strokeColor=none;fillColor=none;overflow=fill;" vertex="1" parent="1">
          <mxGeometry x="688" y="439" width="180" height="140" as="geometry" />
        </mxCell>
        <mxCell id="21m5CHn8YErzXhLoMhKg-18" style="edgeStyle=orthogonalEdgeStyle;rounded=0;orthogonalLoop=1;jettySize=auto;html=1;" edge="1" parent="1" source="21m5CHn8YErzXhLoMhKg-2" target="21m5CHn8YErzXhLoMhKg-1">
          <mxGeometry relative="1" as="geometry" />
        </mxCell>
        <mxCell id="21m5CHn8YErzXhLoMhKg-34" style="edgeStyle=orthogonalEdgeStyle;rounded=0;orthogonalLoop=1;jettySize=auto;html=1;" edge="1" parent="1" source="21m5CHn8YErzXhLoMhKg-2" target="21m5CHn8YErzXhLoMhKg-10">
          <mxGeometry relative="1" as="geometry" />
        </mxCell>
        <mxCell id="21m5CHn8YErzXhLoMhKg-2" value="&lt;table border=&quot;1&quot; width=&quot;100%&quot; height=&quot;100%&quot; cellpadding=&quot;4&quot; style=&quot;width:100%;height:100%;border-collapse:collapse;&quot;&gt;&lt;tbody&gt;&lt;tr&gt;&lt;th align=&quot;center&quot;&gt;InputListener&lt;/th&gt;&lt;/tr&gt;&lt;tr&gt;&lt;td align=&quot;center&quot;&gt;&lt;br&gt;&lt;/td&gt;&lt;/tr&gt;&lt;tr&gt;&lt;td align=&quot;center&quot;&gt;capture() -&amp;gt; Input&lt;/td&gt;&lt;/tr&gt;&lt;/tbody&gt;&lt;/table&gt;" style="text;html=1;whiteSpace=wrap;strokeColor=none;fillColor=none;overflow=fill;" vertex="1" parent="1">
          <mxGeometry x="363" y="439" width="180" height="140" as="geometry" />
        </mxCell>
        <mxCell id="21m5CHn8YErzXhLoMhKg-4" style="edgeStyle=orthogonalEdgeStyle;rounded=0;orthogonalLoop=1;jettySize=auto;html=1;endArrow=block;endFill=0;dashed=1;" edge="1" parent="1" source="21m5CHn8YErzXhLoMhKg-3" target="21m5CHn8YErzXhLoMhKg-2">
          <mxGeometry relative="1" as="geometry" />
        </mxCell>
        <mxCell id="21m5CHn8YErzXhLoMhKg-3" value="&lt;table border=&quot;1&quot; width=&quot;100%&quot; height=&quot;100%&quot; cellpadding=&quot;4&quot; style=&quot;width:100%;height:100%;border-collapse:collapse;&quot;&gt;&lt;tbody&gt;&lt;tr&gt;&lt;th align=&quot;center&quot;&gt;PygameInputListener&lt;/th&gt;&lt;/tr&gt;&lt;tr&gt;&lt;td align=&quot;center&quot;&gt;events&lt;/td&gt;&lt;/tr&gt;&lt;tr&gt;&lt;td align=&quot;center&quot;&gt;capture() -&amp;gt; Input&lt;/td&gt;&lt;/tr&gt;&lt;/tbody&gt;&lt;/table&gt;" style="text;html=1;whiteSpace=wrap;strokeColor=none;fillColor=none;overflow=fill;" vertex="1" parent="1">
          <mxGeometry x="100" y="439" width="180" height="140" as="geometry" />
        </mxCell>
        <mxCell id="21m5CHn8YErzXhLoMhKg-13" style="edgeStyle=orthogonalEdgeStyle;rounded=0;orthogonalLoop=1;jettySize=auto;html=1;entryX=0;entryY=0.5;entryDx=0;entryDy=0;" edge="1" parent="1" source="21m5CHn8YErzXhLoMhKg-6" target="21m5CHn8YErzXhLoMhKg-30">
          <mxGeometry relative="1" as="geometry">
            <mxPoint x="1102.0000000000005" y="808" as="targetPoint" />
          </mxGeometry>
        </mxCell>
        <mxCell id="21m5CHn8YErzXhLoMhKg-40" style="edgeStyle=orthogonalEdgeStyle;rounded=0;orthogonalLoop=1;jettySize=auto;html=1;entryX=1;entryY=0.5;entryDx=0;entryDy=0;" edge="1" parent="1" source="21m5CHn8YErzXhLoMhKg-6" target="21m5CHn8YErzXhLoMhKg-10">
          <mxGeometry relative="1" as="geometry">
            <Array as="points">
              <mxPoint x="1102" y="798" />
            </Array>
          </mxGeometry>
        </mxCell>
        <mxCell id="21m5CHn8YErzXhLoMhKg-6" value="&lt;table border=&quot;1&quot; width=&quot;100%&quot; height=&quot;100%&quot; cellpadding=&quot;4&quot; style=&quot;width:100%;height:100%;border-collapse:collapse;&quot;&gt;&lt;tbody&gt;&lt;tr&gt;&lt;th align=&quot;center&quot;&gt;Game&lt;/th&gt;&lt;/tr&gt;&lt;tr&gt;&lt;td align=&quot;center&quot;&gt;state: GameState&lt;br&gt;characters: list[Character]&lt;br&gt;slots: list[CharacterSlot]&lt;/td&gt;&lt;/tr&gt;&lt;tr&gt;&lt;td align=&quot;center&quot;&gt;loop(Input) -&amp;gt; None&lt;/td&gt;&lt;/tr&gt;&lt;/tbody&gt;&lt;/table&gt;" style="text;html=1;whiteSpace=wrap;strokeColor=none;fillColor=none;overflow=fill;" vertex="1" parent="1">
          <mxGeometry x="1012" y="439" width="180" height="140" as="geometry" />
        </mxCell>
        <mxCell id="21m5CHn8YErzXhLoMhKg-9" style="edgeStyle=orthogonalEdgeStyle;rounded=0;orthogonalLoop=1;jettySize=auto;html=1;exitX=0;exitY=0.5;exitDx=0;exitDy=0;endArrow=blockThin;endFill=0;dashed=1;entryX=1;entryY=0.5;entryDx=0;entryDy=0;" edge="1" parent="1" source="21m5CHn8YErzXhLoMhKg-8" target="21m5CHn8YErzXhLoMhKg-30">
          <mxGeometry relative="1" as="geometry">
            <mxPoint x="1192" y="798" as="targetPoint" />
          </mxGeometry>
        </mxCell>
        <mxCell id="21m5CHn8YErzXhLoMhKg-8" value="&lt;table border=&quot;1&quot; width=&quot;100%&quot; height=&quot;100%&quot; cellpadding=&quot;4&quot; style=&quot;width:100%;height:100%;border-collapse:collapse;&quot;&gt;&lt;tbody&gt;&lt;tr&gt;&lt;th align=&quot;center&quot;&gt;PygameRenderer&lt;/th&gt;&lt;/tr&gt;&lt;tr&gt;&lt;td align=&quot;center&quot;&gt;&lt;br&gt;&lt;/td&gt;&lt;/tr&gt;&lt;tr&gt;&lt;td align=&quot;center&quot;&gt;render(Game) -&amp;gt; None&lt;/td&gt;&lt;/tr&gt;&lt;/tbody&gt;&lt;/table&gt;" style="text;html=1;whiteSpace=wrap;strokeColor=none;fillColor=none;overflow=fill;" vertex="1" parent="1">
          <mxGeometry x="1705" y="439" width="180" height="140" as="geometry" />
        </mxCell>
        <mxCell id="21m5CHn8YErzXhLoMhKg-10" value="&lt;table border=&quot;1&quot; width=&quot;100%&quot; height=&quot;100%&quot; cellpadding=&quot;4&quot; style=&quot;width:100%;height:100%;border-collapse:collapse;&quot;&gt;&lt;tbody&gt;&lt;tr&gt;&lt;th align=&quot;center&quot;&gt;Engine&lt;/th&gt;&lt;/tr&gt;&lt;tr&gt;&lt;td align=&quot;center&quot;&gt;screen: Screen&lt;br&gt;input_listener: InputListener&lt;br&gt;running: bool&lt;/td&gt;&lt;/tr&gt;&lt;tr&gt;&lt;td align=&quot;center&quot;&gt;run(Game) -&amp;gt; None&lt;/td&gt;&lt;/tr&gt;&lt;/tbody&gt;&lt;/table&gt;" style="text;html=1;whiteSpace=wrap;strokeColor=none;fillColor=none;overflow=fill;" vertex="1" parent="1">
          <mxGeometry x="363" y="728" width="180" height="140" as="geometry" />
        </mxCell>
        <mxCell id="21m5CHn8YErzXhLoMhKg-24" style="edgeStyle=orthogonalEdgeStyle;rounded=0;orthogonalLoop=1;jettySize=auto;html=1;" edge="1" parent="1" source="21m5CHn8YErzXhLoMhKg-14" target="21m5CHn8YErzXhLoMhKg-22">
          <mxGeometry relative="1" as="geometry" />
        </mxCell>
        <mxCell id="21m5CHn8YErzXhLoMhKg-32" style="edgeStyle=orthogonalEdgeStyle;rounded=0;orthogonalLoop=1;jettySize=auto;html=1;" edge="1" parent="1" source="21m5CHn8YErzXhLoMhKg-14" target="21m5CHn8YErzXhLoMhKg-17">
          <mxGeometry relative="1" as="geometry" />
        </mxCell>
        <mxCell id="21m5CHn8YErzXhLoMhKg-14" value="&lt;table border=&quot;1&quot; width=&quot;100%&quot; height=&quot;100%&quot; cellpadding=&quot;4&quot; style=&quot;width:100%;height:100%;border-collapse:collapse;&quot;&gt;&lt;tbody&gt;&lt;tr&gt;&lt;th align=&quot;center&quot;&gt;Character&lt;/th&gt;&lt;/tr&gt;&lt;tr&gt;&lt;td align=&quot;center&quot;&gt;position: Vector&lt;br&gt;size: Vector&lt;br&gt;health: int&lt;/td&gt;&lt;/tr&gt;&lt;tr&gt;&lt;td align=&quot;center&quot;&gt;deploy_in(CharacterSlot) -&amp;gt; None&lt;/td&gt;&lt;/tr&gt;&lt;/tbody&gt;&lt;/table&gt;" style="text;html=1;whiteSpace=wrap;strokeColor=none;fillColor=none;overflow=fill;" vertex="1" parent="1">
          <mxGeometry x="1012" y="-68" width="180" height="140" as="geometry" />
        </mxCell>
        <mxCell id="21m5CHn8YErzXhLoMhKg-16" style="edgeStyle=orthogonalEdgeStyle;rounded=0;orthogonalLoop=1;jettySize=auto;html=1;" edge="1" parent="1" source="21m5CHn8YErzXhLoMhKg-15" target="21m5CHn8YErzXhLoMhKg-14">
          <mxGeometry relative="1" as="geometry" />
        </mxCell>
        <mxCell id="21m5CHn8YErzXhLoMhKg-33" style="edgeStyle=orthogonalEdgeStyle;rounded=0;orthogonalLoop=1;jettySize=auto;html=1;" edge="1" parent="1" source="21m5CHn8YErzXhLoMhKg-15" target="21m5CHn8YErzXhLoMhKg-21">
          <mxGeometry relative="1" as="geometry" />
        </mxCell>
        <mxCell id="21m5CHn8YErzXhLoMhKg-15" value="&lt;table border=&quot;1&quot; width=&quot;100%&quot; height=&quot;100%&quot; cellpadding=&quot;4&quot; style=&quot;width:100%;height:100%;border-collapse:collapse;&quot;&gt;&lt;tbody&gt;&lt;tr&gt;&lt;th align=&quot;center&quot;&gt;CharacterSlot&lt;/th&gt;&lt;/tr&gt;&lt;tr&gt;&lt;td align=&quot;center&quot;&gt;position: Vector&lt;br&gt;size: Vector&lt;br&gt;&lt;/td&gt;&lt;/tr&gt;&lt;tr&gt;&lt;td align=&quot;center&quot;&gt;&lt;br&gt;&lt;/td&gt;&lt;/tr&gt;&lt;/tbody&gt;&lt;/table&gt;" style="text;html=1;whiteSpace=wrap;strokeColor=none;fillColor=none;overflow=fill;" vertex="1" parent="1">
          <mxGeometry x="1012" y="-269" width="180" height="140" as="geometry" />
        </mxCell>
        <mxCell id="21m5CHn8YErzXhLoMhKg-36" style="edgeStyle=orthogonalEdgeStyle;rounded=0;orthogonalLoop=1;jettySize=auto;html=1;entryX=0.5;entryY=0;entryDx=0;entryDy=0;" edge="1" parent="1" source="21m5CHn8YErzXhLoMhKg-17" target="21m5CHn8YErzXhLoMhKg-30">
          <mxGeometry relative="1" as="geometry" />
        </mxCell>
        <mxCell id="21m5CHn8YErzXhLoMhKg-17" value="&lt;table border=&quot;1&quot; width=&quot;100%&quot; height=&quot;100%&quot; cellpadding=&quot;4&quot; style=&quot;width:100%;height:100%;border-collapse:collapse;&quot;&gt;&lt;tbody&gt;&lt;tr&gt;&lt;th align=&quot;center&quot;&gt;CharacterPainter&lt;/th&gt;&lt;/tr&gt;&lt;tr&gt;&lt;td align=&quot;center&quot;&gt;Screen&lt;/td&gt;&lt;/tr&gt;&lt;tr&gt;&lt;td align=&quot;center&quot;&gt;paint(Character) -&amp;gt; None&lt;/td&gt;&lt;/tr&gt;&lt;/tbody&gt;&lt;/table&gt;" style="text;html=1;whiteSpace=wrap;strokeColor=none;fillColor=none;overflow=fill;" vertex="1" parent="1">
          <mxGeometry x="1345" y="-68" width="180" height="140" as="geometry" />
        </mxCell>
        <mxCell id="21m5CHn8YErzXhLoMhKg-21" value="&lt;table border=&quot;1&quot; width=&quot;100%&quot; height=&quot;100%&quot; cellpadding=&quot;4&quot; style=&quot;width:100%;height:100%;border-collapse:collapse;&quot;&gt;&lt;tbody&gt;&lt;tr&gt;&lt;th align=&quot;center&quot;&gt;CharacterSlotPainter&lt;/th&gt;&lt;/tr&gt;&lt;tr&gt;&lt;td align=&quot;center&quot;&gt;Screen&lt;/td&gt;&lt;/tr&gt;&lt;tr&gt;&lt;td align=&quot;center&quot;&gt;paint(CharacterSlot) -&amp;gt; None&lt;/td&gt;&lt;/tr&gt;&lt;/tbody&gt;&lt;/table&gt;" style="text;html=1;whiteSpace=wrap;strokeColor=none;fillColor=none;overflow=fill;" vertex="1" parent="1">
          <mxGeometry x="1345" y="-269" width="180" height="140" as="geometry" />
        </mxCell>
        <mxCell id="21m5CHn8YErzXhLoMhKg-23" style="edgeStyle=orthogonalEdgeStyle;rounded=0;orthogonalLoop=1;jettySize=auto;html=1;entryX=0.5;entryY=0;entryDx=0;entryDy=0;" edge="1" parent="1" source="21m5CHn8YErzXhLoMhKg-22" target="21m5CHn8YErzXhLoMhKg-6">
          <mxGeometry relative="1" as="geometry" />
        </mxCell>
        <mxCell id="21m5CHn8YErzXhLoMhKg-22" value="&lt;table border=&quot;1&quot; width=&quot;100%&quot; height=&quot;100%&quot; cellpadding=&quot;4&quot; style=&quot;width:100%;height:100%;border-collapse:collapse;&quot;&gt;&lt;tbody&gt;&lt;tr&gt;&lt;th align=&quot;center&quot;&gt;GameState&lt;/th&gt;&lt;/tr&gt;&lt;tr&gt;&lt;td align=&quot;center&quot;&gt;characters: list[Character]&lt;br&gt;slots: list[Slot]&lt;/td&gt;&lt;/tr&gt;&lt;tr&gt;&lt;td align=&quot;center&quot;&gt;loop(Input) -&amp;gt; None&lt;/td&gt;&lt;/tr&gt;&lt;/tbody&gt;&lt;/table&gt;" style="text;html=1;whiteSpace=wrap;strokeColor=none;fillColor=none;overflow=fill;" vertex="1" parent="1">
          <mxGeometry x="1012" y="177" width="180" height="140" as="geometry" />
        </mxCell>
        <mxCell id="21m5CHn8YErzXhLoMhKg-28" style="edgeStyle=orthogonalEdgeStyle;rounded=0;orthogonalLoop=1;jettySize=auto;html=1;entryX=0;entryY=0.5;entryDx=0;entryDy=0;endArrow=block;endFill=0;dashed=1;" edge="1" parent="1" target="21m5CHn8YErzXhLoMhKg-10">
          <mxGeometry relative="1" as="geometry">
            <mxPoint x="248" y="798" as="sourcePoint" />
          </mxGeometry>
        </mxCell>
        <mxCell id="21m5CHn8YErzXhLoMhKg-27" value="&lt;table border=&quot;1&quot; width=&quot;100%&quot; height=&quot;100%&quot; cellpadding=&quot;4&quot; style=&quot;width:100%;height:100%;border-collapse:collapse;&quot;&gt;&lt;tbody&gt;&lt;tr&gt;&lt;th align=&quot;center&quot;&gt;PygameEngine&lt;/th&gt;&lt;/tr&gt;&lt;tr&gt;&lt;td align=&quot;center&quot;&gt;screen: Screen&lt;br&gt;input_listener: InputListener&lt;br&gt;running: bool&lt;/td&gt;&lt;/tr&gt;&lt;tr&gt;&lt;td align=&quot;center&quot;&gt;run(Game) -&amp;gt; None&lt;/td&gt;&lt;/tr&gt;&lt;/tbody&gt;&lt;/table&gt;" style="text;html=1;whiteSpace=wrap;strokeColor=none;fillColor=none;overflow=fill;" vertex="1" parent="1">
          <mxGeometry x="68" y="735" width="180" height="140" as="geometry" />
        </mxCell>
        <mxCell id="21m5CHn8YErzXhLoMhKg-39" style="edgeStyle=orthogonalEdgeStyle;rounded=0;orthogonalLoop=1;jettySize=auto;html=1;entryX=1;entryY=0.5;entryDx=0;entryDy=0;" edge="1" parent="1" source="21m5CHn8YErzXhLoMhKg-30" target="21m5CHn8YErzXhLoMhKg-10">
          <mxGeometry relative="1" as="geometry">
            <Array as="points">
              <mxPoint x="1435" y="798" />
            </Array>
          </mxGeometry>
        </mxCell>
        <mxCell id="21m5CHn8YErzXhLoMhKg-30" value="&lt;table border=&quot;1&quot; width=&quot;100%&quot; height=&quot;100%&quot; cellpadding=&quot;4&quot; style=&quot;width:100%;height:100%;border-collapse:collapse;&quot;&gt;&lt;tbody&gt;&lt;tr&gt;&lt;th align=&quot;center&quot;&gt;GameRenderer&lt;/th&gt;&lt;/tr&gt;&lt;tr&gt;&lt;td align=&quot;center&quot;&gt;Screen&lt;br&gt;CharacterPainter&lt;br&gt;CharacterSlotPainter&lt;/td&gt;&lt;/tr&gt;&lt;tr&gt;&lt;td align=&quot;center&quot;&gt;render(Game) -&amp;gt; None&lt;/td&gt;&lt;/tr&gt;&lt;/tbody&gt;&lt;/table&gt;" style="text;html=1;whiteSpace=wrap;strokeColor=none;fillColor=none;overflow=fill;" vertex="1" parent="1">
          <mxGeometry x="1345" y="439" width="180" height="140" as="geometry" />
        </mxCell>
        <mxCell id="21m5CHn8YErzXhLoMhKg-31" value="&lt;table border=&quot;1&quot; width=&quot;100%&quot; height=&quot;100%&quot; cellpadding=&quot;4&quot; style=&quot;width:100%;height:100%;border-collapse:collapse;&quot;&gt;&lt;tbody&gt;&lt;tr&gt;&lt;th align=&quot;center&quot;&gt;Screen&lt;/th&gt;&lt;/tr&gt;&lt;tr&gt;&lt;td align=&quot;center&quot;&gt;&lt;br&gt;&lt;/td&gt;&lt;/tr&gt;&lt;tr&gt;&lt;td align=&quot;center&quot;&gt;paint() -&amp;gt; None&lt;/td&gt;&lt;/tr&gt;&lt;/tbody&gt;&lt;/table&gt;" style="text;html=1;whiteSpace=wrap;strokeColor=none;fillColor=none;overflow=fill;" vertex="1" parent="1">
          <mxGeometry x="1345" y="-486" width="180" height="140" as="geometry" />
        </mxCell>
        <mxCell id="21m5CHn8YErzXhLoMhKg-38" value="&lt;table border=&quot;1&quot; width=&quot;100%&quot; height=&quot;100%&quot; cellpadding=&quot;4&quot; style=&quot;width:100%;height:100%;border-collapse:collapse;&quot;&gt;&lt;tbody&gt;&lt;tr&gt;&lt;th align=&quot;center&quot;&gt;FrameGenerator&lt;/th&gt;&lt;/tr&gt;&lt;tr&gt;&lt;td align=&quot;center&quot;&gt;&lt;br&gt;&lt;/td&gt;&lt;/tr&gt;&lt;tr&gt;&lt;td align=&quot;center&quot;&gt;run(Loopable) -&amp;gt; None&lt;br&gt;&lt;/td&gt;&lt;/tr&gt;&lt;/tbody&gt;&lt;/table&gt;" style="text;html=1;whiteSpace=wrap;strokeColor=none;fillColor=none;overflow=fill;" vertex="1" parent="1">
          <mxGeometry x="1996" y="-502" width="180" height="140" as="geometry" />
        </mxCell>
        <mxCell id="21m5CHn8YErzXhLoMhKg-41" value="&lt;table border=&quot;1&quot; width=&quot;100%&quot; height=&quot;100%&quot; cellpadding=&quot;4&quot; style=&quot;width:100%;height:100%;border-collapse:collapse;&quot;&gt;&lt;tbody&gt;&lt;tr&gt;&lt;th align=&quot;center&quot;&gt;Frame&lt;/th&gt;&lt;/tr&gt;&lt;tr&gt;&lt;td align=&quot;center&quot;&gt;&lt;br&gt;&lt;/td&gt;&lt;/tr&gt;&lt;tr&gt;&lt;td align=&quot;center&quot;&gt;&lt;br&gt;&lt;/td&gt;&lt;/tr&gt;&lt;/tbody&gt;&lt;/table&gt;" style="text;html=1;whiteSpace=wrap;strokeColor=none;fillColor=none;overflow=fill;" vertex="1" parent="1">
          <mxGeometry x="1670" y="-595" width="180" height="140" as="geometry" />
        </mxCell>
        <mxCell id="21m5CHn8YErzXhLoMhKg-42" value="Loopable" style="text;html=1;align=center;verticalAlign=middle;resizable=0;points=[];autosize=1;strokeColor=none;fillColor=none;" vertex="1" parent="1">
          <mxGeometry x="293" y="949" width="67" height="26" as="geometry" />
        </mxCell>
        <mxCell id="21m5CHn8YErzXhLoMhKg-43" value="&lt;table border=&quot;1&quot; width=&quot;100%&quot; height=&quot;100%&quot; cellpadding=&quot;4&quot; style=&quot;width:100%;height:100%;border-collapse:collapse;&quot;&gt;&lt;tbody&gt;&lt;tr&gt;&lt;th align=&quot;center&quot;&gt;Loopable&lt;/th&gt;&lt;/tr&gt;&lt;tr&gt;&lt;td align=&quot;center&quot;&gt;&lt;br&gt;&lt;/td&gt;&lt;/tr&gt;&lt;tr&gt;&lt;td align=&quot;center&quot;&gt;loop(Input) -&amp;gt; None&lt;/td&gt;&lt;/tr&gt;&lt;/tbody&gt;&lt;/table&gt;" style="text;html=1;whiteSpace=wrap;strokeColor=none;fillColor=none;overflow=fill;" vertex="1" parent="1">
          <mxGeometry x="566" y="119" width="180" height="140" as="geometry" />
        </mxCell>
      </root>
    </mxGraphModel>
  </diagram>
  <diagram name="Kopia av Sida-1" id="xKxnYLRQZcSVy_9L6sRE">
    <mxGraphModel dx="2963" dy="2738" grid="0" gridSize="10" guides="1" tooltips="1" connect="1" arrows="1" fold="1" page="1" pageScale="1" pageWidth="827" pageHeight="1169" math="0" shadow="0">
      <root>
        <mxCell id="KEtSZiGQy1J4E22icJmA-0" />
        <mxCell id="KEtSZiGQy1J4E22icJmA-1" parent="KEtSZiGQy1J4E22icJmA-0" />
        <mxCell id="KEtSZiGQy1J4E22icJmA-2" style="edgeStyle=orthogonalEdgeStyle;rounded=0;orthogonalLoop=1;jettySize=auto;html=1;" edge="1" parent="KEtSZiGQy1J4E22icJmA-1" source="KEtSZiGQy1J4E22icJmA-3" target="KEtSZiGQy1J4E22icJmA-11">
          <mxGeometry relative="1" as="geometry" />
        </mxCell>
        <mxCell id="KEtSZiGQy1J4E22icJmA-3" value="&lt;table border=&quot;1&quot; width=&quot;100%&quot; height=&quot;100%&quot; cellpadding=&quot;4&quot; style=&quot;width:100%;height:100%;border-collapse:collapse;&quot;&gt;&lt;tbody&gt;&lt;tr&gt;&lt;th align=&quot;center&quot;&gt;Input&lt;/th&gt;&lt;/tr&gt;&lt;tr&gt;&lt;td align=&quot;center&quot;&gt;is_quit&lt;br&gt;is_mouse1_down&lt;br&gt;is_mouse1_up&lt;br&gt;mouse_position&lt;/td&gt;&lt;/tr&gt;&lt;tr&gt;&lt;td align=&quot;center&quot;&gt;&lt;br&gt;&lt;/td&gt;&lt;/tr&gt;&lt;/tbody&gt;&lt;/table&gt;" style="text;html=1;whiteSpace=wrap;strokeColor=none;fillColor=none;overflow=fill;" vertex="1" parent="KEtSZiGQy1J4E22icJmA-1">
          <mxGeometry x="688" y="439" width="180" height="140" as="geometry" />
        </mxCell>
        <mxCell id="KEtSZiGQy1J4E22icJmA-4" style="edgeStyle=orthogonalEdgeStyle;rounded=0;orthogonalLoop=1;jettySize=auto;html=1;" edge="1" parent="KEtSZiGQy1J4E22icJmA-1" source="KEtSZiGQy1J4E22icJmA-6" target="KEtSZiGQy1J4E22icJmA-3">
          <mxGeometry relative="1" as="geometry" />
        </mxCell>
        <mxCell id="KEtSZiGQy1J4E22icJmA-5" style="edgeStyle=orthogonalEdgeStyle;rounded=0;orthogonalLoop=1;jettySize=auto;html=1;" edge="1" parent="KEtSZiGQy1J4E22icJmA-1" source="KEtSZiGQy1J4E22icJmA-6" target="KEtSZiGQy1J4E22icJmA-14">
          <mxGeometry relative="1" as="geometry" />
        </mxCell>
        <mxCell id="KEtSZiGQy1J4E22icJmA-6" value="&lt;table border=&quot;1&quot; width=&quot;100%&quot; height=&quot;100%&quot; cellpadding=&quot;4&quot; style=&quot;width:100%;height:100%;border-collapse:collapse;&quot;&gt;&lt;tbody&gt;&lt;tr&gt;&lt;th align=&quot;center&quot;&gt;InputListener&lt;/th&gt;&lt;/tr&gt;&lt;tr&gt;&lt;td align=&quot;center&quot;&gt;&lt;br&gt;&lt;/td&gt;&lt;/tr&gt;&lt;tr&gt;&lt;td align=&quot;center&quot;&gt;capture() -&amp;gt; Input&lt;/td&gt;&lt;/tr&gt;&lt;/tbody&gt;&lt;/table&gt;" style="text;html=1;whiteSpace=wrap;strokeColor=none;fillColor=none;overflow=fill;" vertex="1" parent="KEtSZiGQy1J4E22icJmA-1">
          <mxGeometry x="363" y="439" width="180" height="140" as="geometry" />
        </mxCell>
        <mxCell id="KEtSZiGQy1J4E22icJmA-9" style="edgeStyle=orthogonalEdgeStyle;rounded=0;orthogonalLoop=1;jettySize=auto;html=1;entryX=0;entryY=0.5;entryDx=0;entryDy=0;" edge="1" parent="KEtSZiGQy1J4E22icJmA-1" source="KEtSZiGQy1J4E22icJmA-11" target="KEtSZiGQy1J4E22icJmA-29">
          <mxGeometry relative="1" as="geometry">
            <mxPoint x="1102.0000000000005" y="808" as="targetPoint" />
          </mxGeometry>
        </mxCell>
        <mxCell id="KEtSZiGQy1J4E22icJmA-10" style="edgeStyle=orthogonalEdgeStyle;rounded=0;orthogonalLoop=1;jettySize=auto;html=1;entryX=1;entryY=0.5;entryDx=0;entryDy=0;" edge="1" parent="KEtSZiGQy1J4E22icJmA-1" source="KEtSZiGQy1J4E22icJmA-11" target="KEtSZiGQy1J4E22icJmA-14">
          <mxGeometry relative="1" as="geometry">
            <Array as="points">
              <mxPoint x="1102" y="798" />
            </Array>
          </mxGeometry>
        </mxCell>
        <mxCell id="KEtSZiGQy1J4E22icJmA-11" value="&lt;table border=&quot;1&quot; width=&quot;100%&quot; height=&quot;100%&quot; cellpadding=&quot;4&quot; style=&quot;width:100%;height:100%;border-collapse:collapse;&quot;&gt;&lt;tbody&gt;&lt;tr&gt;&lt;th align=&quot;center&quot;&gt;Loopable&lt;/th&gt;&lt;/tr&gt;&lt;tr&gt;&lt;td align=&quot;center&quot;&gt;&lt;br&gt;&lt;/td&gt;&lt;/tr&gt;&lt;tr&gt;&lt;td align=&quot;center&quot;&gt;loop(Input) -&amp;gt; None&lt;/td&gt;&lt;/tr&gt;&lt;/tbody&gt;&lt;/table&gt;" style="text;html=1;whiteSpace=wrap;strokeColor=none;fillColor=none;overflow=fill;" vertex="1" parent="KEtSZiGQy1J4E22icJmA-1">
          <mxGeometry x="1012" y="439" width="180" height="140" as="geometry" />
        </mxCell>
        <mxCell id="KEtSZiGQy1J4E22icJmA-14" value="&lt;table border=&quot;1&quot; width=&quot;100%&quot; height=&quot;100%&quot; cellpadding=&quot;4&quot; style=&quot;width:100%;height:100%;border-collapse:collapse;&quot;&gt;&lt;tbody&gt;&lt;tr&gt;&lt;th align=&quot;center&quot;&gt;Engine&lt;/th&gt;&lt;/tr&gt;&lt;tr&gt;&lt;td align=&quot;center&quot;&gt;InputListener&lt;br&gt;Loopable&lt;br&gt;Renderer&lt;br&gt;&lt;/td&gt;&lt;/tr&gt;&lt;tr&gt;&lt;td align=&quot;center&quot;&gt;run(Loopable) -&amp;gt; None&lt;/td&gt;&lt;/tr&gt;&lt;/tbody&gt;&lt;/table&gt;" style="text;html=1;whiteSpace=wrap;strokeColor=none;fillColor=none;overflow=fill;" vertex="1" parent="KEtSZiGQy1J4E22icJmA-1">
          <mxGeometry x="363" y="728" width="180" height="140" as="geometry" />
        </mxCell>
        <mxCell id="KEtSZiGQy1J4E22icJmA-15" style="edgeStyle=orthogonalEdgeStyle;rounded=0;orthogonalLoop=1;jettySize=auto;html=1;" edge="1" parent="KEtSZiGQy1J4E22icJmA-1" source="KEtSZiGQy1J4E22icJmA-17" target="KEtSZiGQy1J4E22icJmA-25">
          <mxGeometry relative="1" as="geometry" />
        </mxCell>
        <mxCell id="KEtSZiGQy1J4E22icJmA-16" style="edgeStyle=orthogonalEdgeStyle;rounded=0;orthogonalLoop=1;jettySize=auto;html=1;" edge="1" parent="KEtSZiGQy1J4E22icJmA-1" source="KEtSZiGQy1J4E22icJmA-17" target="KEtSZiGQy1J4E22icJmA-22">
          <mxGeometry relative="1" as="geometry" />
        </mxCell>
        <mxCell id="KEtSZiGQy1J4E22icJmA-17" value="&lt;table border=&quot;1&quot; width=&quot;100%&quot; height=&quot;100%&quot; cellpadding=&quot;4&quot; style=&quot;width:100%;height:100%;border-collapse:collapse;&quot;&gt;&lt;tbody&gt;&lt;tr&gt;&lt;th align=&quot;center&quot;&gt;Character&lt;/th&gt;&lt;/tr&gt;&lt;tr&gt;&lt;td align=&quot;center&quot;&gt;position: Vector&lt;br&gt;size: Vector&lt;br&gt;health: int&lt;/td&gt;&lt;/tr&gt;&lt;tr&gt;&lt;td align=&quot;center&quot;&gt;deploy_in(CharacterSlot) -&amp;gt; None&lt;/td&gt;&lt;/tr&gt;&lt;/tbody&gt;&lt;/table&gt;" style="text;html=1;whiteSpace=wrap;strokeColor=none;fillColor=none;overflow=fill;" vertex="1" parent="KEtSZiGQy1J4E22icJmA-1">
          <mxGeometry x="1051" y="-425" width="180" height="140" as="geometry" />
        </mxCell>
        <mxCell id="KEtSZiGQy1J4E22icJmA-18" style="edgeStyle=orthogonalEdgeStyle;rounded=0;orthogonalLoop=1;jettySize=auto;html=1;" edge="1" parent="KEtSZiGQy1J4E22icJmA-1" source="KEtSZiGQy1J4E22icJmA-20" target="KEtSZiGQy1J4E22icJmA-17">
          <mxGeometry relative="1" as="geometry" />
        </mxCell>
        <mxCell id="KEtSZiGQy1J4E22icJmA-19" style="edgeStyle=orthogonalEdgeStyle;rounded=0;orthogonalLoop=1;jettySize=auto;html=1;" edge="1" parent="KEtSZiGQy1J4E22icJmA-1" source="KEtSZiGQy1J4E22icJmA-20" target="KEtSZiGQy1J4E22icJmA-23">
          <mxGeometry relative="1" as="geometry" />
        </mxCell>
        <mxCell id="KEtSZiGQy1J4E22icJmA-20" value="&lt;table border=&quot;1&quot; width=&quot;100%&quot; height=&quot;100%&quot; cellpadding=&quot;4&quot; style=&quot;width:100%;height:100%;border-collapse:collapse;&quot;&gt;&lt;tbody&gt;&lt;tr&gt;&lt;th align=&quot;center&quot;&gt;CharacterSlot&lt;/th&gt;&lt;/tr&gt;&lt;tr&gt;&lt;td align=&quot;center&quot;&gt;position: Vector&lt;br&gt;size: Vector&lt;br&gt;&lt;/td&gt;&lt;/tr&gt;&lt;tr&gt;&lt;td align=&quot;center&quot;&gt;&lt;br&gt;&lt;/td&gt;&lt;/tr&gt;&lt;/tbody&gt;&lt;/table&gt;" style="text;html=1;whiteSpace=wrap;strokeColor=none;fillColor=none;overflow=fill;" vertex="1" parent="KEtSZiGQy1J4E22icJmA-1">
          <mxGeometry x="1051" y="-626" width="180" height="140" as="geometry" />
        </mxCell>
        <mxCell id="KEtSZiGQy1J4E22icJmA-22" value="&lt;table border=&quot;1&quot; width=&quot;100%&quot; height=&quot;100%&quot; cellpadding=&quot;4&quot; style=&quot;width:100%;height:100%;border-collapse:collapse;&quot;&gt;&lt;tbody&gt;&lt;tr&gt;&lt;th align=&quot;center&quot;&gt;CharacterPainter&lt;/th&gt;&lt;/tr&gt;&lt;tr&gt;&lt;td align=&quot;center&quot;&gt;Screen&lt;/td&gt;&lt;/tr&gt;&lt;tr&gt;&lt;td align=&quot;center&quot;&gt;paint(Surface, Character) -&amp;gt; None&lt;/td&gt;&lt;/tr&gt;&lt;/tbody&gt;&lt;/table&gt;" style="text;html=1;whiteSpace=wrap;strokeColor=none;fillColor=none;overflow=fill;" vertex="1" parent="KEtSZiGQy1J4E22icJmA-1">
          <mxGeometry x="1384" y="-425" width="180" height="140" as="geometry" />
        </mxCell>
        <mxCell id="KEtSZiGQy1J4E22icJmA-23" value="&lt;table border=&quot;1&quot; width=&quot;100%&quot; height=&quot;100%&quot; cellpadding=&quot;4&quot; style=&quot;width:100%;height:100%;border-collapse:collapse;&quot;&gt;&lt;tbody&gt;&lt;tr&gt;&lt;th align=&quot;center&quot;&gt;CharacterSlotPainter&lt;/th&gt;&lt;/tr&gt;&lt;tr&gt;&lt;td align=&quot;center&quot;&gt;Screen&lt;/td&gt;&lt;/tr&gt;&lt;tr&gt;&lt;td align=&quot;center&quot;&gt;paint(Surface, CharacterSlot) -&amp;gt; None&lt;/td&gt;&lt;/tr&gt;&lt;/tbody&gt;&lt;/table&gt;" style="text;html=1;whiteSpace=wrap;strokeColor=none;fillColor=none;overflow=fill;" vertex="1" parent="KEtSZiGQy1J4E22icJmA-1">
          <mxGeometry x="1384" y="-626" width="180" height="140" as="geometry" />
        </mxCell>
        <mxCell id="KEtSZiGQy1J4E22icJmA-25" value="&lt;table border=&quot;1&quot; width=&quot;100%&quot; height=&quot;100%&quot; cellpadding=&quot;4&quot; style=&quot;width:100%;height:100%;border-collapse:collapse;&quot;&gt;&lt;tbody&gt;&lt;tr&gt;&lt;th align=&quot;center&quot;&gt;GameState&lt;/th&gt;&lt;/tr&gt;&lt;tr&gt;&lt;td align=&quot;center&quot;&gt;characters: list[Character]&lt;br&gt;slots: list[Slot]&lt;/td&gt;&lt;/tr&gt;&lt;tr&gt;&lt;td align=&quot;center&quot;&gt;loop(Input) -&amp;gt; None&lt;/td&gt;&lt;/tr&gt;&lt;/tbody&gt;&lt;/table&gt;" style="text;html=1;whiteSpace=wrap;strokeColor=none;fillColor=none;overflow=fill;" vertex="1" parent="KEtSZiGQy1J4E22icJmA-1">
          <mxGeometry x="1051" y="-180" width="180" height="140" as="geometry" />
        </mxCell>
        <mxCell id="KEtSZiGQy1J4E22icJmA-28" style="edgeStyle=orthogonalEdgeStyle;rounded=0;orthogonalLoop=1;jettySize=auto;html=1;entryX=1;entryY=0.5;entryDx=0;entryDy=0;" edge="1" parent="KEtSZiGQy1J4E22icJmA-1" source="KEtSZiGQy1J4E22icJmA-29" target="KEtSZiGQy1J4E22icJmA-14">
          <mxGeometry relative="1" as="geometry">
            <Array as="points">
              <mxPoint x="1435" y="798" />
            </Array>
          </mxGeometry>
        </mxCell>
        <mxCell id="KEtSZiGQy1J4E22icJmA-29" value="&lt;table border=&quot;1&quot; width=&quot;100%&quot; height=&quot;100%&quot; cellpadding=&quot;4&quot; style=&quot;width:100%;height:100%;border-collapse:collapse;&quot;&gt;&lt;tbody&gt;&lt;tr&gt;&lt;th align=&quot;center&quot;&gt;Renderer&lt;/th&gt;&lt;/tr&gt;&lt;tr&gt;&lt;td align=&quot;center&quot;&gt;&lt;br&gt;&lt;/td&gt;&lt;/tr&gt;&lt;tr&gt;&lt;td align=&quot;center&quot;&gt;render(Loopable) -&amp;gt; None&lt;/td&gt;&lt;/tr&gt;&lt;/tbody&gt;&lt;/table&gt;" style="text;html=1;whiteSpace=wrap;strokeColor=none;fillColor=none;overflow=fill;" vertex="1" parent="KEtSZiGQy1J4E22icJmA-1">
          <mxGeometry x="1345" y="439" width="180" height="140" as="geometry" />
        </mxCell>
        <mxCell id="TeDrqtzjbcSGZIgGZYrh-0" value="&lt;table border=&quot;1&quot; width=&quot;100%&quot; height=&quot;100%&quot; cellpadding=&quot;4&quot; style=&quot;width:100%;height:100%;border-collapse:collapse;&quot;&gt;&lt;tbody&gt;&lt;tr&gt;&lt;th align=&quot;center&quot;&gt;PygameRenderer&lt;/th&gt;&lt;/tr&gt;&lt;tr&gt;&lt;td align=&quot;center&quot;&gt;Surface&lt;/td&gt;&lt;/tr&gt;&lt;tr&gt;&lt;td align=&quot;center&quot;&gt;render(Loopable) -&amp;gt; None&lt;br&gt;draw_frame()&lt;/td&gt;&lt;/tr&gt;&lt;/tbody&gt;&lt;/table&gt;" style="text;html=1;whiteSpace=wrap;strokeColor=none;fillColor=none;overflow=fill;" vertex="1" parent="KEtSZiGQy1J4E22icJmA-1">
          <mxGeometry x="1724" y="-199" width="180" height="140" as="geometry" />
        </mxCell>
      </root>
    </mxGraphModel>
  </diagram>
</mxfile>
